# xmcd
#
# Track frame offsets:
#	150
#	15917
#	29924
#	47073
#	65047
#	80455
#	94376
#	112985
#	130434
#	149595
#	166121
#
# Disc length: 2418 seconds
#
# Revision: 0
# Processed by: cddbd v1.4PL0 Copyright (c) Steve Scherf et al.
# Submitted via: dBpowerAMP V4.0
#
DISCID=9909700b
DTITLE=Kenny Chesney - Everywhere We Go
DYEAR=1900
DGENRE=Country
TTITLE0=What I Need To Do
TTITLE1=How Forever Feels
TTITLE2=You Had Me From Hello
TTITLE3=Kiss Me, Kiss Me, Kiss Me
TTITLE4=Life Is Good
TTITLE5=Everywhere We Go
TTITLE6=She Thinks My Tractor's Sexy
TTITLE7=California
TTITLE8=Baptism
TTITLE9=A Woman Knows
TTITLE10=I Might Get Over You
EXTD=
EXTT0=
EXTT1=
EXTT2=
EXTT3=
EXTT4=
EXTT5=
EXTT6=
EXTT7=
EXTT8=
EXTT9=
EXTT10=
PLAYORDER=
